:SAMPLES-PER-SECOND 30
:FULLY-SPECIFIED
:DEGREES
112
root  -53.2524 38.2846 -4.39412 -6.20078 -66.3009 9.54221
RightUpLeg  -31.6202 24.3048 -24.0453
RightLeg  21.1994 11.7061 4.76091
RightFoot  -5.96913 -0.546219 10.5807
RightToes  -1.33073e-015 0 -3.6325e-017
Spine  32.1171 -1.01237 18.1533
Spine1  7.93993 9.28706 -16.7387
HEad  -21.3938 -30.0764 1.94414
LeftShoulder1  0.707103 1.43254 -28.0142
LeftArm  10.9717 2.00214 -44.5651
LeftForeArm  18.3961 -40.0225 -8.22811
LeftHand  -0.0551665 4.1169 3.21712
RightShoulder  0.284756 -2.11066 13.7826
RightArm  -29.862 70.3795 8.84935
RightForeArm  -19.4379 -5.93884 3.01353
RightHand  -1.35836 12.6706 -9.11938
LeftUpLeg  -29.3547 -0.41992 -8.06905
LeftLeg  24.8963 -11.9585 -5.65669
LeftFoot  6.21084 -1.54985 9.76685
LeftToes  -1.63346e-009 7.54925e-011 9.86887e-012
113
root  -53.8672 38.2201 -4.78095 -5.37747 -62.967 9.53976
RightUpLeg  -31.8259 26.4815 -25.3432
RightLeg  18.8851 15.0573 5.46187
RightFoot  -4.93863 -0.770502 13.1393
RightToes  -1.33073e-015 0 -3.6325e-017
Spine  32.7534 -1.42195 18.6729
Spine1  8.04222 8.82029 -15.5127
HEad  -21.9087 -28.7459 1.59267
LeftShoulder1  0.749514 1.31668 -28.1546
LeftArm  11.2381 2.40346 -44.0474
LeftForeArm  18.8785 -38.4495 -7.72187
LeftHand  -0.0359259 4.92154 2.99357
RightShoulder  0.258626 -2.24967 14.0088
RightArm  -32.341 68.5042 4.95882
RightForeArm  -21.7869 -5.90729 2.54817
RightHand  -1.49788 14.3145 -9.20981
LeftUpLeg  -30.249 -2.94527 -7.82181
LeftLeg  26.4394 -12.2125 -6.19046
LeftFoot  5.40606 -1.41636 9.37426
LeftToes  -1.63346e-009 7.54925e-011 9.86887e-012
114
root  -54.4001 38.2123 -5.24672 -3.83316 -59.8078 8.68314
RightUpLeg  -32.1503 25.9309 -24.4269
RightLeg  21.6528 11.4773 4.79144
RightFoot  -5.92358 -0.607938 11.9975
RightToes  -1.33073e-015 0 -3.6325e-017
Spine  33.501 -1.62242 19.4989
Spine1  8.05968 8.44617 -13.8802
HEad  -22.6993 -27.9661 0.277311
LeftShoulder1  0.716691 1.47556 -29.2303
LeftArm  11.3847 2.57609 -42.7408
LeftForeArm  18.3364 -36.4137 -7.1667
LeftHand  -0.0358619 4.99169 3.6219
RightShoulder  0.196051 -2.55884 14.3435
RightArm  -33.2247 65.862 2.72366
RightForeArm  -21.056 -4.52057 1.7878
RightHand  -1.50192 14.9612 -8.97238
LeftUpLeg  -31.3958 -6.24829 -6.69121
LeftLeg  27.779 -11.879 -6.37304
LeftFoot  5.3147 -1.24884 8.29768
LeftToes  -1.63346e-009 7.54925e-011 9.86887e-012
115
root  -54.887 38.232 -5.72933 -2.8551 -57.4195 8.69839
RightUpLeg  -32.8721 22.3416 -22.9936
RightLeg  24.1496 12.2769 5.75358
RightFoot  -5.16709 -0.60313 10.4889
RightToes  -1.33073e-015 0 -3.6325e-017
Spine  34.1711 -1.98418 20.3248
Spine1  7.70752 8.4352 -14.149
HEad  -24.0464 -26.9833 0.419203
LeftShoulder1  0.701112 1.53375 -29.4898
LeftArm  10.5708 3.72752 -41.628
LeftForeArm  17.7158 -34.9738 -6.81014
LeftHand  -0.0348923 5.01946 3.72563
RightShoulder  0.16848 -2.73431 15.7114
RightArm  -33.6933 63.08 0.714384
RightForeArm  -18.8842 1.95811 1.68683
RightHand  -1.27074 16.2692 -7.22674
LeftUpLeg  -33.0068 -9.22924 -5.55026
LeftLeg  28.9796 -11.3268 -6.38113
LeftFoot  5.79112 -1.01552 6.50336
LeftToes  -1.63346e-009 7.54925e-011 9.86887e-012
116
root  -55.3783 38.2394 -6.19288 -2.18948 -54.0227 8.84344
RightUpLeg  -32.6653 17.6479 -21.5322
RightLeg  26.2786 13.3044 6.84351
RightFoot  -5.43969 -0.521507 9.3728
RightToes  -1.33073e-015 0 -3.6325e-017
Spine  33.4678 -2.37295 20.853
Spine1  8.71179 7.88665 -13.405
HEad  -25.1639 -25.3717 0.331988
LeftShoulder1  0.708016 1.5014 -29.2714
LeftArm  10.2434 5.10859 -41.3006
LeftForeArm  17.5283 -33.7316 -6.49254
LeftHand  -0.0555275 4.23959 3.61194
RightShoulder  0.172933 -2.73492 16.3692
RightArm  -33.6842 59.9686 0.374473
RightForeArm  -17.5286 9.50578 1.73897
RightHand  -1.42553 17.8865 -7.52728
LeftUpLeg  -34.368 -12.5684 -4.67765
LeftLeg  30.0154 -11.3925 -6.69608
LeftFoot  6.46543 -0.765217 4.63131
LeftToes  -1.63346e-009 7.54925e-011 9.86887e-012
117
root  -55.9062 38.3176 -6.6195 -1.46912 -50.534 8.59534
RightUpLeg  -31.5954 13.423 -20.0521
RightLeg  27.1335 14.2343 7.58777
RightFoot  -6.25748 -0.44225 8.98526
RightToes  -1.33073e-015 0 -3.6325e-017
Spine  32.6575 -2.36656 21.3967
Spine1  9.09562 7.32763 -11.9601
HEad  -24.6888 -23.5704 -0.770896
LeftShoulder1  0.637689 1.73293 -29.8992
LeftArm  11.3099 6.05751 -40.3123
LeftForeArm  17.1038 -32.4386 -6.18571
LeftHand  -0.0448725 4.62902 3.65673
RightShoulder  0.142993 -2.88519 17.6471
RightArm  -34.4694 56.4302 0.593478
RightForeArm  -13.7361 18.3285 3.29979
RightHand  -1.59898 18.7958 -8.09213
LeftUpLeg  -35.0357 -15.2729 -3.69299
LeftLeg  30.4191 -12.247 -7.33177
LeftFoot  7.02769 -0.499895 2.82411
LeftToes  -1.63346e-009 7.54925e-011 9.86887e-012
